<svg width="57" height="58" viewBox="0 0 57 58" fill="none" xmlns="http://www.w3.org/2000/svg">
<path d="M30.4718 14.5646C26.9739 11.0668 24.4357 3.70346 19.5432 2.19808C15.2855 0.888023 2 6.33851 2 10.8259C2 22.8854 11.3461 44.3529 23.4775 50.4186" stroke="#1E1E1E" stroke-width="4" stroke-linecap="round" stroke-linejoin="round"/>
<path d="M30.4719 17.153C32.4886 17.153 33.6694 15.253 35.0734 13.9894C38.695 10.73 42.9843 12.7907 47.2961 11.8325C56.6067 9.76345 56.5718 19.6364 50.6035 26.9311C39.2277 40.8349 26.9366 50.2543 9.76514 55.9781" stroke="#1E1E1E" stroke-width="4" stroke-linecap="round" stroke-linejoin="round"/>
<path d="M21.7518 9.83263C22.1728 9.29139 20.9145 8.99528 20.596 8.67683C20.0022 8.08304 20.4962 7.29203 20.1757 6.58703C19.5518 5.21446 15.6549 6.20235 14.5018 6.45861C13.0939 6.77147 11.7314 7.19635 10.2871 7.56772C8.91419 7.92076 7.297 8.30449 6.24766 9.24889C5.30879 10.0939 5.36037 11.265 5.36037 12.4478C5.36037 13.9867 5.37038 15.8043 5.79234 17.2812C5.93011 17.7634 6.1702 18.3154 6.20096 18.8689C6.22148 19.2384 6.4111 19.527 6.4111 19.9314C6.4111 20.4595 6.8077 20.7777 6.8314 21.1806C6.92027 22.6913 8.04216 24.034 8.55927 25.4302C9.1584 27.0478 10.2263 28.4196 10.6024 30.1118C10.9861 31.8387 12.3697 33.377 13.2409 34.9452C14.1801 36.6358 15.288 38.1409 16.3814 39.7202C17.5305 41.38 19.577 42.3735 21.028 43.783C21.6407 44.3782 22.2725 44.9681 22.5924 45.7677C22.9828 46.7438 23.204 46.3807 22.499 45.9779C21.7485 45.549 21.3335 44.5069 20.3041 44.5069C20.0903 44.5069 20.7996 44.5007 20.9112 44.5069C21.2452 44.5254 21.3941 44.84 21.6584 44.9155C22.1516 45.0564 22.6232 45.955 23.0127 45.9779C23.3611 45.9984 24.3534 45.6307 24.5304 45.3475C25.1432 44.367 27.2633 43.8846 28.2664 43.4094C29.5194 42.8159 30.4477 41.9762 31.5353 41.3547C32.1428 41.0075 32.8709 40.5374 33.3099 39.9887C33.7007 39.5002 34.1235 38.7216 34.6642 38.4126C35.5517 37.9055 36.3655 37.082 37.256 36.5213C37.7726 36.196 38.5819 36.039 38.9372 35.4706C39.7091 34.2354 41.0639 33.632 42.0894 32.6919C42.7587 32.0784 43.4644 31.4018 44.0507 30.7422C44.5612 30.168 45.3254 29.914 45.8253 29.2712C46.7581 28.0719 47.2631 26.6187 48.0202 25.2668C48.4545 24.4913 48.7058 23.719 49.2811 23.0719C49.5745 22.7417 50.2828 22.0176 50.3318 21.6009C50.4076 20.9562 50.7521 20.6053 50.7521 19.9197C50.7521 19.2036 50.7521 18.4876 50.7521 17.7715C50.7521 17.0758 50.8969 16.2445 50.5419 15.6233C50.2565 15.1238 48.4856 15.0863 48.0085 15.0863C46.106 15.0863 44.1844 14.8762 42.2411 14.8762C40.4417 14.8762 39.394 15.9692 37.7697 16.5106C36.0999 17.0672 34.7903 17.9287 33.1932 18.6588C32.6832 18.8919 29.8694 19.4036 29.7374 19.1725C29.3721 18.5332 28.6164 18.1272 28.2664 17.5147C27.7565 16.6224 26.5904 15.3017 25.8497 14.5609C24.7952 13.5065 24.3379 11.7235 23.5964 10.4631C23.0831 9.59033 22.2941 8.76576 22.0087 7.77786C21.8612 7.26724 21.5417 6.90159 21.5417 6.36521C21.5417 5.99414 21.2576 6.11235 21.1214 5.83984" stroke="#FF0000" stroke-width="3" stroke-linecap="round"/>
<path d="M20.7011 22.2313C20.7011 20.5333 20.2808 18.8206 20.2808 17.1994C20.2808 16.6159 19.8605 16.1514 19.8605 15.6C19.8605 15.1096 19.8605 14.6193 19.8605 14.129C19.8605 13.3277 18.6474 11.067 17.654 11.6189C17.0064 11.9787 15.8763 12.1774 15.1322 12.3427C13.4689 12.7123 10.7356 11.9373 10.6141 14.2457C10.5888 14.7249 10.0864 15.1083 10.2405 15.5533C10.4422 16.1359 10.8994 16.6426 11.2445 17.1411C11.9588 18.1728 12.3048 19.4137 12.6688 20.5968C13.123 22.0727 12.757 23.2338 13.6495 24.6363C13.9393 25.0917 14.0298 25.6095 14.1866 26.119C14.4077 26.8377 14.979 27.5375 15.3307 28.2088C15.9102 29.3151 16.2049 30.571 16.9418 31.5945C17.627 32.5461 18.8385 33.1929 19.3468 34.2097C19.8397 35.1954 20.5378 36.1761 21.2148 37.0466C22.4105 38.5839 23.2649 40.869 25.4294 38.7045C26.5865 37.5474 28.35 37.1917 29.6324 36.1944C30.1853 35.7643 31.0594 35.9474 31.512 35.3655C31.9505 34.8016 32.1933 34.1328 32.6678 33.5792C33.9163 32.1226 35.3474 30.6581 36.6723 29.2128C37.2053 28.6313 37.9994 28.4048 38.4935 27.8119C38.8657 27.3653 39.221 26.9008 39.5676 26.4342C39.9356 25.9389 40.3218 25.5241 40.8285 25.1733C41.4605 24.7358 41.993 24.2192 42.5097 23.6556C42.7781 23.3629 43.3794 22.9593 43.5604 22.6516C44.06 21.8022 44.591 20.636 45.335 19.9664C45.5611 19.7629 46.5148 19.7095 46.2106 19.7095C44.278 19.7095 42.3205 19.6099 40.3965 19.8146C39.2453 19.9371 37.4433 20.7421 36.6723 21.7059C34.7165 24.1506 31.8657 24.1226 28.8968 24.1226C27.4212 24.1226 26.5623 23.7534 25.3243 23.0252C24.6642 22.6369 23.8533 21.0069 23.8533 20.1765C23.8533 19.521 24.0635 21.6301 24.0635 21.8577C24.0635 23.4662 23.4791 24.9698 22.4757 26.2241C21.2007 27.8178 25.2167 29.3097 25.9548 29.5864C29.703 30.992 32.3112 28.6081 35.785 27.3215C37.4091 26.72 38.9422 25.7502 40.525 25.0099C41.1882 24.6997 41.5404 23.971 42.1361 23.6556C43.8022 22.7735 44.83 20.9894 46.5492 20.1298" stroke="#FF0000" stroke-width="9" stroke-linecap="round"/>
<path d="M39.1941 26.2241C39.3533 27.4974 40.3864 27.8809 41.2956 27.2748" stroke="#FF0000" stroke-width="9" stroke-linecap="round"/>
</svg>
