<svg width="26" height="26" viewBox="0 0 26 26" fill="none" xmlns="http://www.w3.org/2000/svg">
<path d="M12.994 16.7904C14.9812 16.7904 16.5922 15.1794 16.5922 13.1922C16.5922 11.205 14.9812 9.59399 12.994 9.59399C11.0067 9.59399 9.39575 11.205 9.39575 13.1922C9.39575 15.1794 11.0067 16.7904 12.994 16.7904Z" stroke="#292D32" stroke-width="2" stroke-miterlimit="10" stroke-linecap="round" stroke-linejoin="round"/>
<path d="M1 14.2476V12.1366C1 10.8893 2.01949 9.85778 3.27886 9.85778C5.44978 9.85778 6.33733 8.32255 5.24588 6.43949C4.62219 5.36003 4.994 3.95673 6.08546 3.33304L8.16042 2.14564C9.10795 1.58192 10.3313 1.91775 10.8951 2.86528L11.027 3.09316C12.1064 4.97622 13.8816 4.97622 14.973 3.09316L15.1049 2.86528C15.6687 1.91775 16.8921 1.58192 17.8396 2.14564L19.9145 3.33304C21.006 3.95673 21.3778 5.36003 20.7541 6.43949C19.6627 8.32255 20.5502 9.85778 22.7211 9.85778C23.9685 9.85778 25 10.8773 25 12.1366V14.2476C25 15.495 23.9805 16.5264 22.7211 16.5264C20.5502 16.5264 19.6627 18.0617 20.7541 19.9447C21.3778 21.0362 21.006 22.4275 19.9145 23.0512L17.8396 24.2386C16.8921 24.8023 15.6687 24.4665 15.1049 23.519L14.973 23.2911C13.8936 21.408 12.1184 21.408 11.027 23.2911L10.8951 23.519C10.3313 24.4665 9.10795 24.8023 8.16042 24.2386L6.08546 23.0512C4.994 22.4275 4.62219 21.0242 5.24588 19.9447C6.33733 18.0617 5.44978 16.5264 3.27886 16.5264C2.01949 16.5264 1 15.495 1 14.2476Z" stroke="#292D32" stroke-width="2" stroke-miterlimit="10" stroke-linecap="round" stroke-linejoin="round"/>
</svg>
