<svg width="20" height="19" viewBox="0 0 20 19" fill="none" xmlns="http://www.w3.org/2000/svg">
<path d="M19.0012 9.70908C19.0142 9.05601 18.947 8.40381 18.8012 7.76709H9.70117V11.2931H15.0432C14.9399 11.9146 14.7109 12.5086 14.3701 13.0386C14.0293 13.5685 13.5839 14.0233 13.0612 14.3751L13.0432 14.4931L15.9212 16.6781L16.1212 16.6971C17.07 15.8033 17.818 14.7181 18.3157 13.5134C18.8134 12.3086 19.0495 11.0119 19.0082 9.70908" fill="#4285F4"/>
<path d="M9.69525 19.0009C12.0469 19.0683 14.3376 18.2467 16.1103 16.6999L13.0513 14.3779C12.2941 14.8642 11.4372 15.1737 10.5441 15.2836C9.65096 15.3935 8.74457 15.3009 7.89211 15.0128C7.03965 14.7246 6.26299 14.2483 5.61974 13.619C4.97648 12.9898 4.48312 12.2238 4.17625 11.3779L4.06225 11.3869L1.07025 13.6559L1.03125 13.7629C1.85377 15.3476 3.0973 16.6747 4.62512 17.5984C6.15294 18.5222 7.90589 19.0068 9.69125 18.9989" fill="#34A853"/>
<path d="M4.18 11.378C3.96839 10.774 3.85922 10.1389 3.857 9.49899C3.86086 8.86009 3.96617 8.22585 4.169 7.61999L4.164 7.49399L1.134 5.18799L1.034 5.23399C0.35451 6.55282 0 8.01491 0 9.49849C0 10.9821 0.35451 12.4442 1.034 13.763L4.18 11.378Z" fill="#FBBC05"/>
<path d="M9.69516 3.67383C11.079 3.65026 12.4197 4.15605 13.4432 5.08783L16.1792 2.47083C14.4109 0.852329 12.0921 -0.0310102 9.69516 0.000831864C7.90978 -0.0071333 6.15678 0.477408 4.62894 1.40117C3.10109 2.32493 1.85758 3.65214 1.03516 5.23683L4.16916 7.62283C4.56483 6.47152 5.30989 5.47236 6.30046 4.76465C7.29103 4.05695 8.47775 3.67597 9.69516 3.67483" fill="#EB4335"/>
</svg>
