<svg width="101" height="24" viewBox="0 0 101 24" fill="none" xmlns="http://www.w3.org/2000/svg">
<rect y="3.5" width="12" height="5" fill="#62DE6E"/>
<rect y="9.5" width="12" height="5" fill="#62DE6E"/>
<rect x="13.5" y="10" width="11" height="4" stroke="black"/>
<rect y="15.5" width="12" height="5" fill="#62DE6E"/>
<rect x="13" y="3.5" width="12" height="5" fill="#62DE6E"/>
<rect x="13" y="15.5" width="12" height="5" fill="#62DE6E"/>
<path d="M38.5 19.18C37.6333 19.18 36.8533 19.0267 36.16 18.72C35.48 18.4 34.94 17.9733 34.54 17.44C34.14 16.8933 33.9267 16.2867 33.9 15.62H36.26C36.3 16.0867 36.52 16.48 36.92 16.8C37.3333 17.1067 37.8467 17.26 38.46 17.26C39.1 17.26 39.5933 17.14 39.94 16.9C40.3 16.6467 40.48 16.3267 40.48 15.94C40.48 15.5267 40.28 15.22 39.88 15.02C39.4933 14.82 38.8733 14.6 38.02 14.36C37.1933 14.1333 36.52 13.9133 36 13.7C35.48 13.4867 35.0267 13.16 34.64 12.72C34.2667 12.28 34.08 11.7 34.08 10.98C34.08 10.3933 34.2533 9.86 34.6 9.38C34.9467 8.88667 35.44 8.5 36.08 8.22C36.7333 7.94 37.48 7.8 38.32 7.8C39.5733 7.8 40.58 8.12 41.34 8.76C42.1133 9.38667 42.5267 10.2467 42.58 11.34H40.3C40.26 10.8467 40.06 10.4533 39.7 10.16C39.34 9.86667 38.8533 9.72 38.24 9.72C37.64 9.72 37.18 9.83333 36.86 10.06C36.54 10.2867 36.38 10.5867 36.38 10.96C36.38 11.2533 36.4867 11.5 36.7 11.7C36.9133 11.9 37.1733 12.06 37.48 12.18C37.7867 12.2867 38.24 12.4267 38.84 12.6C39.64 12.8133 40.2933 13.0333 40.8 13.26C41.32 13.4733 41.7667 13.7933 42.14 14.22C42.5133 14.6467 42.7067 15.2133 42.72 15.92C42.72 16.5467 42.5467 17.1067 42.2 17.6C41.8533 18.0933 41.36 18.48 40.72 18.76C40.0933 19.04 39.3533 19.18 38.5 19.18ZM49.9636 19.18C48.9236 19.18 47.9836 18.9467 47.1436 18.48C46.3036 18 45.6436 17.3333 45.1636 16.48C44.6836 15.6133 44.4436 14.6133 44.4436 13.48C44.4436 12.36 44.6903 11.3667 45.1836 10.5C45.6769 9.63333 46.3503 8.96667 47.2036 8.5C48.0569 8.03333 49.0103 7.8 50.0636 7.8C51.1169 7.8 52.0703 8.03333 52.9236 8.5C53.7769 8.96667 54.4503 9.63333 54.9436 10.5C55.4369 11.3667 55.6836 12.36 55.6836 13.48C55.6836 14.6 55.4303 15.5933 54.9236 16.46C54.4169 17.3267 53.7236 18 52.8436 18.48C51.9769 18.9467 51.0169 19.18 49.9636 19.18ZM49.9636 17.2C50.5503 17.2 51.0969 17.06 51.6036 16.78C52.1236 16.5 52.5436 16.08 52.8636 15.52C53.1836 14.96 53.3436 14.28 53.3436 13.48C53.3436 12.68 53.1903 12.0067 52.8836 11.46C52.5769 10.9 52.1703 10.48 51.6636 10.2C51.1569 9.92 50.6103 9.78 50.0236 9.78C49.4369 9.78 48.8903 9.92 48.3836 10.2C47.8903 10.48 47.4969 10.9 47.2036 11.46C46.9103 12.0067 46.7636 12.68 46.7636 13.48C46.7636 14.6667 47.0636 15.5867 47.6636 16.24C48.2769 16.88 49.0436 17.2 49.9636 17.2ZM60.2175 9.62C60.6042 9.08667 61.1308 8.65333 61.7975 8.32C62.4775 7.97333 63.2308 7.8 64.0575 7.8C65.0308 7.8 65.9108 8.03333 66.6975 8.5C67.4842 8.96667 68.1042 9.63333 68.5575 10.5C69.0108 11.3533 69.2375 12.3333 69.2375 13.44C69.2375 14.5467 69.0108 15.54 68.5575 16.42C68.1042 17.2867 67.4775 17.9667 66.6775 18.46C65.8908 18.94 65.0175 19.18 64.0575 19.18C63.2042 19.18 62.4442 19.0133 61.7775 18.68C61.1242 18.3467 60.6042 17.92 60.2175 17.4V19H57.9375V4.2H60.2175V9.62ZM66.9175 13.44C66.9175 12.68 66.7575 12.0267 66.4375 11.48C66.1308 10.92 65.7175 10.5 65.1975 10.22C64.6908 9.92667 64.1442 9.78 63.5575 9.78C62.9842 9.78 62.4375 9.92667 61.9175 10.22C61.4108 10.5133 60.9975 10.94 60.6775 11.5C60.3708 12.06 60.2175 12.72 60.2175 13.48C60.2175 14.24 60.3708 14.9067 60.6775 15.48C60.9975 16.04 61.4108 16.4667 61.9175 16.76C62.4375 17.0533 62.9842 17.2 63.5575 17.2C64.1442 17.2 64.6908 17.0533 65.1975 16.76C65.7175 16.4533 66.1308 16.0133 66.4375 15.44C66.7575 14.8667 66.9175 14.2 66.9175 13.44ZM70.7322 13.44C70.7322 12.3333 70.9589 11.3533 71.4122 10.5C71.8789 9.64667 72.5055 8.98667 73.2922 8.52C74.0922 8.04 74.9722 7.8 75.9322 7.8C76.7989 7.8 77.5522 7.97333 78.1922 8.32C78.8455 8.65333 79.3655 9.07333 79.7522 9.58V7.98H82.0522V19H79.7522V17.36C79.3655 17.88 78.8389 18.3133 78.1722 18.66C77.5055 19.0067 76.7455 19.18 75.8922 19.18C74.9455 19.18 74.0789 18.94 73.2922 18.46C72.5055 17.9667 71.8789 17.2867 71.4122 16.42C70.9589 15.54 70.7322 14.5467 70.7322 13.44ZM79.7522 13.48C79.7522 12.72 79.5922 12.06 79.2722 11.5C78.9655 10.94 78.5589 10.5133 78.0522 10.22C77.5455 9.92667 76.9989 9.78 76.4122 9.78C75.8255 9.78 75.2789 9.92667 74.7722 10.22C74.2655 10.5 73.8522 10.92 73.5322 11.48C73.2255 12.0267 73.0722 12.68 73.0722 13.44C73.0722 14.2 73.2255 14.8667 73.5322 15.44C73.8522 16.0133 74.2655 16.4533 74.7722 16.76C75.2922 17.0533 75.8389 17.2 76.4122 17.2C76.9989 17.2 77.5455 17.0533 78.0522 16.76C78.5589 16.4667 78.9655 16.04 79.2722 15.48C79.5922 14.9067 79.7522 14.24 79.7522 13.48ZM86.2069 6.52C85.7935 6.52 85.4469 6.38 85.1669 6.1C84.8869 5.82 84.7469 5.47333 84.7469 5.06C84.7469 4.64667 84.8869 4.3 85.1669 4.02C85.4469 3.74 85.7935 3.6 86.2069 3.6C86.6069 3.6 86.9469 3.74 87.2269 4.02C87.5069 4.3 87.6469 4.64667 87.6469 5.06C87.6469 5.47333 87.5069 5.82 87.2269 6.1C86.9469 6.38 86.6069 6.52 86.2069 6.52ZM87.3269 7.98V19H85.0469V7.98H87.3269ZM91.4803 6.52C91.067 6.52 90.7203 6.38 90.4403 6.1C90.1603 5.82 90.0203 5.47333 90.0203 5.06C90.0203 4.64667 90.1603 4.3 90.4403 4.02C90.7203 3.74 91.067 3.6 91.4803 3.6C91.8803 3.6 92.2203 3.74 92.5003 4.02C92.7803 4.3 92.9203 4.64667 92.9203 5.06C92.9203 5.47333 92.7803 5.82 92.5003 6.1C92.2203 6.38 91.8803 6.52 91.4803 6.52ZM92.6003 7.98V19H90.3203V7.98H92.6003Z" fill="black"/>
</svg>
